<?xml version="1.0" encoding="UTF-8" standalone="no"?>
<svg
   xmlns:v="http://schemas.microsoft.com/visio/2003/SVGExtensions/"
   xmlns:dc="http://purl.org/dc/elements/1.1/"
   xmlns:cc="http://creativecommons.org/ns#"
   xmlns:rdf="http://www.w3.org/1999/02/22-rdf-syntax-ns#"
   xmlns:svg="http://www.w3.org/2000/svg"
   xmlns="http://www.w3.org/2000/svg"
   xmlns:sodipodi="http://sodipodi.sourceforge.net/DTD/sodipodi-0.dtd"
   xmlns:inkscape="http://www.inkscape.org/namespaces/inkscape"
   width="1345"
   height="250"
   viewBox="0 0 1008.75 187.5"
   xml:space="preserve"
   color-interpolation-filters="sRGB"
   class="st19"
   version="1.1"
   id="svg164"
   sodipodi:docname="abstract_architecture.svg"
   inkscape:version="1.0.1 (3bc2e813f5, 2020-09-07)"><metadata
   id="metadata168"><rdf:RDF><cc:Work
       rdf:about=""><dc:format>image/svg+xml</dc:format><dc:type
         rdf:resource="http://purl.org/dc/dcmitype/StillImage" /><dc:title /></cc:Work></rdf:RDF></metadata><sodipodi:namedview
   pagecolor="#ffffff"
   bordercolor="#666666"
   borderopacity="1"
   objecttolerance="10"
   gridtolerance="10"
   guidetolerance="10"
   inkscape:pageopacity="0"
   inkscape:pageshadow="2"
   inkscape:window-width="3840"
   inkscape:window-height="2066"
   id="namedview166"
   showgrid="false"
   fit-margin-top="0"
   fit-margin-left="0"
   fit-margin-right="0"
   fit-margin-bottom="0"
   units="px"
   inkscape:zoom="0.99364407"
   inkscape:cx="672.5"
   inkscape:cy="237.5"
   inkscape:window-x="-11"
   inkscape:window-y="-11"
   inkscape:window-maximized="1"
   inkscape:current-layer="svg164"
   inkscape:document-rotation="0" />
	<v:documentProperties
   v:langID="1033"
   v:viewMarkup="false">
		<v:userDefs>
			<v:ud
   v:nameU="msvSubprocessMaster"
   v:prompt=""
   v:val="VT4(Box)" />
			<v:ud
   v:nameU="msvNoAutoConnect"
   v:val="VT0(1):26" />
		</v:userDefs>
	</v:documentProperties>

	<style
   type="text/css"
   id="style2">
	<![CDATA[
		.st1 {visibility:visible}
		.st2 {fill:#0070c0;fill-opacity:0.25;filter:url(#filter_2);stroke:#0070c0;stroke-opacity:0.25}
		.st3 {fill:#dbeef3;stroke:#00508c;stroke-width:0.75}
		.st4 {fill:#f2dcda;stroke:#00508c;stroke-width:0.75}
		.st5 {fill:#7030a0;fill-opacity:0.25;filter:url(#filter_2);stroke:#7030a0;stroke-opacity:0.25}
		.st6 {fill:#62298c;stroke:#502074;stroke-width:4}
		.st7 {fill:#ffffff;font-family:Calibri;font-size:1.00001em}
		.st8 {fill:#0061a8;stroke:#00508c;stroke-width:4}
		.st9 {font-size:1em}
		.st10 {fill:#ff0000;fill-opacity:0.25;filter:url(#filter_2);stroke:#ff0000;stroke-opacity:0.25}
		.st11 {fill:#e00000;stroke:#bc0000;stroke-width:4}
		.st12 {fill:#00b050;fill-opacity:0.25;filter:url(#filter_2);stroke:#00b050;stroke-opacity:0.25}
		.st13 {fill:#009a45;stroke:#008038;stroke-width:4}
		.st14 {fill:#ffffff;font-family:Calibri;font-size:0.833336em}
		.st15 {fill:#ffc000;fill-opacity:0.25;filter:url(#filter_2);stroke:#ffc000;stroke-opacity:0.25}
		.st16 {fill:#e0a800;stroke:#bb8c00;stroke-width:4}
		.st17 {fill:none;stroke:none;stroke-width:0.75}
		.st18 {fill:#00508c;font-family:Calibri;font-size:1.16666em}
		.st19 {fill:none;fill-rule:evenodd;font-size:12px;overflow:visible;stroke-linecap:square;stroke-miterlimit:3}
	]]>
	</style>

	<defs
   id="Filters">
		<filter
   id="filter_2">
			<feGaussianBlur
   stdDeviation="2"
   id="feGaussianBlur4" />
		</filter>
	
		
		
		
		
		
		
		
		
		
		
		
		
		
		
		
		
		
		
		
	
			
			
			
			
		
			
			
			
			
		</defs>
	<g
   id="shadow42-2"
   v:groupContext="shadow"
   v:shadowOffsetX="0.345598"
   v:shadowOffsetY="-1.97279"
   v:shadowType="1"
   transform="translate(486.7206,-242.90221)"
   class="st1">
				<rect
   x="0"
   y="245.25"
   width="522"
   height="186.75"
   class="st2"
   id="rect12" />
			</g><rect
   x="486.375"
   y="0.375"
   width="522"
   height="186.75"
   class="st3"
   id="rect15" /><g
   id="shadow41-7"
   v:groupContext="shadow"
   v:shadowOffsetX="0.345598"
   v:shadowOffsetY="-1.97279"
   v:shadowType="1"
   transform="translate(0.72059984,-242.90221)"
   class="st1">
				<rect
   x="0"
   y="245.25"
   width="486"
   height="186.75"
   class="st2"
   id="rect20" />
			</g><rect
   x="0.375"
   y="0.375"
   width="486"
   height="186.75"
   class="st4"
   id="rect23" /><g
   id="shape1-11"
   v:mID="1"
   v:groupContext="shape"
   transform="translate(433.5,-296.625)">
			<title
   id="title26">Box</title>
			<desc
   id="desc28">Async Boundary</desc>
			<v:userDefs>
				<v:ud
   v:nameU="visVersion"
   v:val="VT0(15):26" />
			</v:userDefs>
			<v:textBlock
   v:margins="rect(4,4,4,4)" />
			<v:textRect
   cx="54"
   cy="396"
   width="108"
   height="72" />
			<g
   id="shadow1-12"
   v:groupContext="shadow"
   v:shadowOffsetX="0.345598"
   v:shadowOffsetY="-1.97279"
   v:shadowType="1"
   transform="translate(0.345598,1.97279)"
   class="st1">
				<rect
   x="0"
   y="360"
   width="108"
   height="72"
   class="st5"
   id="rect30" />
			</g>
			<rect
   x="0"
   y="360"
   width="108"
   height="72"
   class="st6"
   id="rect33" />
			<text
   x="14.85"
   y="399.60001"
   class="st7"
   v:langID="1033"
   id="text35"><v:paragraph
   v:horizAlign="1" /><v:tabList />Async Boundary</text>		</g><g
   id="group23-17"
   transform="translate(636,-265.125)"
   v:mID="23"
   v:groupContext="group">
			<v:custProps>
				<v:cp
   v:nameU="ShapeClass"
   v:lbl="ShapeClass"
   v:prompt=""
   v:type="0"
   v:format=""
   v:sortKey=""
   v:invis="true"
   v:ask="false"
   v:langID="1033"
   v:cal="0"
   v:val="VT4(Location)" />
				<v:cp
   v:nameU="ShapeType"
   v:lbl="ShapeType"
   v:prompt=""
   v:type="0"
   v:format=""
   v:sortKey=""
   v:invis="true"
   v:ask="false"
   v:langID="1033"
   v:cal="0"
   v:val="VT4(Cloud)" />
			</v:custProps>
			<v:userDefs>
				<v:ud
   v:nameU="visVersion"
   v:prompt=""
   v:val="VT0(15):26" />
				<v:ud
   v:nameU="ShapeClass"
   v:prompt=""
   v:val="VT0(5):26" />
				<v:ud
   v:nameU="SolSH"
   v:prompt=""
   v:val="VT15({BF0433D9-CD73-4EB5-8390-8653BE590246}):41" />
				<v:ud
   v:nameU="visLegendShape"
   v:prompt=""
   v:val="VT0(2):26" />
			</v:userDefs>
			<title
   id="title38">Cloud</title>
			<desc
   id="desc40">Writer Firmware Logic</desc>
			<g
   id="shape24-18"
   v:mID="24"
   v:groupContext="shape"
   transform="translate(0,-29.7611)">
				<title
   id="title42">Sheet.24</title>
				<g
   id="shadow24-19"
   v:groupContext="shadow"
   v:shadowOffsetX="0.345598"
   v:shadowOffsetY="-1.97279"
   v:shadowType="1"
   transform="translate(0.345598,1.97279)"
   class="st1">
					<path
   d="m 120.36,373.81 c -0.75,-6.59 -6.75,-11.74 -14.11,-11.74 -2.09,0 -4.06,0.43 -5.85,1.17 -3.46,-6.47 -10.63,-11.22 -24.08,-10.83 -17.48,0.49 -38.18,8.36 -42.34,22.32 -4.98,0.95 -8.19,3.65 -10.1,7.25 -0.78,-0.08 -1.56,-0.13 -2.37,-0.13 -11.51,0 -20.35,8.4 -20.85,18.74 -0.66,13.39 9.34,18.74 20.85,18.74 1.65,0 3.23,-0.18 4.77,-0.51 2.39,1.56 5.51,2.52 8.93,2.52 3.16,0 6.07,-0.82 8.38,-2.19 4.43,7.54 13.54,12.85 24.04,12.23 11.06,-0.64 17.69,-3 21.61,-6.64 0.24,-0.02 0.47,-0.02 0.72,-0.05 12.36,-1.59 17.79,-4.79 19.54,-10.06 0.33,0.01 0.66,0.01 0.99,0.01 16.03,0 29.01,-4.68 29.01,-21.08 0,-9.11 -8.01,-16.8 -19.14,-19.75 z"
   class="st2"
   id="path44" />
				</g>
				<path
   d="m 120.36,373.81 c -0.75,-6.59 -6.75,-11.74 -14.11,-11.74 -2.09,0 -4.06,0.43 -5.85,1.17 -3.46,-6.47 -10.63,-11.22 -24.08,-10.83 -17.48,0.49 -38.18,8.36 -42.34,22.32 -4.98,0.95 -8.19,3.65 -10.1,7.25 -0.78,-0.08 -1.56,-0.13 -2.37,-0.13 -11.51,0 -20.35,8.4 -20.85,18.74 -0.66,13.39 9.34,18.74 20.85,18.74 1.65,0 3.23,-0.18 4.77,-0.51 2.39,1.56 5.51,2.52 8.93,2.52 3.16,0 6.07,-0.82 8.38,-2.19 4.43,7.54 13.54,12.85 24.04,12.23 11.06,-0.64 17.69,-3 21.61,-6.64 0.24,-0.02 0.47,-0.02 0.72,-0.05 12.36,-1.59 17.79,-4.79 19.54,-10.06 0.33,0.01 0.66,0.01 0.99,0.01 16.03,0 29.01,-4.68 29.01,-21.08 0,-9.11 -8.01,-16.8 -19.14,-19.75 z"
   class="st8"
   id="path47" />
			</g>
			<g
   id="shape23-23"
   v:mID="23"
   v:groupContext="groupContent">
				<v:textBlock
   v:margins="rect(4,4,4,4)" />
				<v:textRect
   cx="69.75"
   cy="367.615"
   width="91.74"
   height="36.8038" />
				<g
   id="shadow23-24"
   v:groupContext="shadow"
   v:shadowOffsetX="0.345598"
   v:shadowOffsetY="-1.97279"
   v:shadowType="1"
   transform="translate(0.345598,1.97279)"
   class="st1" />
				<text
   x="29.24"
   y="364.01999"
   class="st7"
   v:langID="1033"
   id="text53"><v:paragraph
   v:horizAlign="1" /><v:tabList />Read Firmware<v:newlineChar /><tspan
   x="57.330002"
   dy="1.2em"
   class="st9"
   id="tspan51">Logic</tspan></text>			</g>
		</g><g
   id="shape30-27"
   v:mID="30"
   v:groupContext="shape"
   v:layerMember="0"
   transform="translate(28.500003,-332.625)">
			<title
   id="title57">Data</title>
			<desc
   id="desc59">Input 0</desc>
			<v:custProps>
				<v:cp
   v:nameU="Cost"
   v:lbl="Cost"
   v:prompt=""
   v:type="7"
   v:format="@"
   v:sortKey=""
   v:invis="false"
   v:ask="false"
   v:langID="1033"
   v:cal="0" />
				<v:cp
   v:nameU="ProcessNumber"
   v:lbl="Process Number"
   v:prompt=""
   v:type="2"
   v:format=""
   v:sortKey=""
   v:invis="false"
   v:ask="false"
   v:langID="1033"
   v:cal="0" />
				<v:cp
   v:nameU="Owner"
   v:lbl="Owner"
   v:prompt=""
   v:type="0"
   v:format=""
   v:sortKey=""
   v:invis="false"
   v:ask="false"
   v:langID="1033"
   v:cal="0" />
				<v:cp
   v:nameU="Function"
   v:lbl="Function"
   v:prompt=""
   v:type="0"
   v:format=""
   v:sortKey=""
   v:invis="false"
   v:ask="false"
   v:langID="1033"
   v:cal="0"
   v:val="VT4()" />
				<v:cp
   v:nameU="StartDate"
   v:lbl="Start Date"
   v:prompt=""
   v:type="5"
   v:format=""
   v:sortKey=""
   v:invis="false"
   v:ask="false"
   v:langID="1033"
   v:cal="0" />
				<v:cp
   v:nameU="EndDate"
   v:lbl="End Date"
   v:prompt=""
   v:type="5"
   v:format=""
   v:sortKey=""
   v:invis="false"
   v:ask="false"
   v:langID="1033"
   v:cal="0" />
				<v:cp
   v:nameU="Status"
   v:lbl="Status"
   v:prompt=""
   v:type="4"
   v:format=";Not Started;In Progress;Completed;Deferred;Waiting on Input"
   v:sortKey=""
   v:invis="false"
   v:ask="false"
   v:langID="1033"
   v:cal="0"
   v:val="VT4()" />
			</v:custProps>
			<v:userDefs>
				<v:ud
   v:nameU="visVersion"
   v:prompt=""
   v:val="VT0(15):26" />
				<v:ud
   v:nameU="DefaultWidth"
   v:prompt=""
   v:val="VT0(1):0" />
				<v:ud
   v:nameU="DefaultHeight"
   v:prompt=""
   v:val="VT0(0.75):0" />
				<v:ud
   v:nameU="ResizeTxtHeight"
   v:prompt=""
   v:val="VT0(0.75):0" />
			</v:userDefs>
			<v:textBlock
   v:margins="rect(2,2,2,2)" />
			<v:textRect
   cx="36"
   cy="405"
   width="48.01"
   height="54" />
			<g
   id="shadow30-28"
   v:groupContext="shadow"
   v:shadowOffsetX="0.345598"
   v:shadowOffsetY="-1.97279"
   v:shadowType="1"
   transform="translate(0.345598,1.97279)"
   class="st1">
				<path
   d="m -13.5,432 h 72 l 27,-54 h -72 z"
   class="st10"
   id="path61" />
			</g>
			<path
   d="m -13.5,432 h 72 l 27,-54 h -72 z"
   class="st11"
   id="path64" />
			<text
   x="18.620001"
   y="408.60001"
   class="st7"
   v:langID="1033"
   id="text66"><v:paragraph
   v:horizAlign="1" /><v:tabList />Input 0</text>		</g><g
   id="shape31-33"
   v:mID="31"
   v:groupContext="shape"
   v:layerMember="0"
   transform="translate(28.500003,-269.625)">
			<title
   id="title69">Data.31</title>
			<desc
   id="desc71">Input 1</desc>
			<v:custProps>
				<v:cp
   v:nameU="Cost"
   v:lbl="Cost"
   v:prompt=""
   v:type="7"
   v:format="@"
   v:sortKey=""
   v:invis="false"
   v:ask="false"
   v:langID="1033"
   v:cal="0" />
				<v:cp
   v:nameU="ProcessNumber"
   v:lbl="Process Number"
   v:prompt=""
   v:type="2"
   v:format=""
   v:sortKey=""
   v:invis="false"
   v:ask="false"
   v:langID="1033"
   v:cal="0" />
				<v:cp
   v:nameU="Owner"
   v:lbl="Owner"
   v:prompt=""
   v:type="0"
   v:format=""
   v:sortKey=""
   v:invis="false"
   v:ask="false"
   v:langID="1033"
   v:cal="0" />
				<v:cp
   v:nameU="Function"
   v:lbl="Function"
   v:prompt=""
   v:type="0"
   v:format=""
   v:sortKey=""
   v:invis="false"
   v:ask="false"
   v:langID="1033"
   v:cal="0"
   v:val="VT4()" />
				<v:cp
   v:nameU="StartDate"
   v:lbl="Start Date"
   v:prompt=""
   v:type="5"
   v:format=""
   v:sortKey=""
   v:invis="false"
   v:ask="false"
   v:langID="1033"
   v:cal="0" />
				<v:cp
   v:nameU="EndDate"
   v:lbl="End Date"
   v:prompt=""
   v:type="5"
   v:format=""
   v:sortKey=""
   v:invis="false"
   v:ask="false"
   v:langID="1033"
   v:cal="0" />
				<v:cp
   v:nameU="Status"
   v:lbl="Status"
   v:prompt=""
   v:type="4"
   v:format=";Not Started;In Progress;Completed;Deferred;Waiting on Input"
   v:sortKey=""
   v:invis="false"
   v:ask="false"
   v:langID="1033"
   v:cal="0"
   v:val="VT4()" />
			</v:custProps>
			<v:userDefs>
				<v:ud
   v:nameU="visVersion"
   v:prompt=""
   v:val="VT0(15):26" />
				<v:ud
   v:nameU="DefaultWidth"
   v:prompt=""
   v:val="VT0(1):0" />
				<v:ud
   v:nameU="DefaultHeight"
   v:prompt=""
   v:val="VT0(0.75):0" />
				<v:ud
   v:nameU="ResizeTxtHeight"
   v:prompt=""
   v:val="VT0(0.75):0" />
			</v:userDefs>
			<v:textBlock
   v:margins="rect(2,2,2,2)" />
			<v:textRect
   cx="36"
   cy="405"
   width="48.01"
   height="54" />
			<g
   id="shadow31-34"
   v:groupContext="shadow"
   v:shadowOffsetX="0.345598"
   v:shadowOffsetY="-1.97279"
   v:shadowType="1"
   transform="translate(0.345598,1.97279)"
   class="st1">
				<path
   d="m -13.5,432 h 72 l 27,-54 h -72 z"
   class="st10"
   id="path73" />
			</g>
			<path
   d="m -13.5,432 h 72 l 27,-54 h -72 z"
   class="st11"
   id="path76" />
			<text
   x="18.620001"
   y="408.60001"
   class="st7"
   v:langID="1033"
   id="text78"><v:paragraph
   v:horizAlign="1" /><v:tabList />Input 1</text>		</g><g
   id="group32-39"
   transform="translate(199.5,-262.875)"
   v:mID="32"
   v:groupContext="group">
			<v:custProps>
				<v:cp
   v:nameU="ShapeClass"
   v:lbl="ShapeClass"
   v:prompt=""
   v:type="0"
   v:format=""
   v:sortKey=""
   v:invis="true"
   v:ask="false"
   v:langID="1033"
   v:cal="0"
   v:val="VT4(Location)" />
				<v:cp
   v:nameU="ShapeType"
   v:lbl="ShapeType"
   v:prompt=""
   v:type="0"
   v:format=""
   v:sortKey=""
   v:invis="true"
   v:ask="false"
   v:langID="1033"
   v:cal="0"
   v:val="VT4(Cloud)" />
			</v:custProps>
			<v:userDefs>
				<v:ud
   v:nameU="visVersion"
   v:prompt=""
   v:val="VT0(15):26" />
				<v:ud
   v:nameU="ShapeClass"
   v:prompt=""
   v:val="VT0(5):26" />
				<v:ud
   v:nameU="SolSH"
   v:prompt=""
   v:val="VT15({BF0433D9-CD73-4EB5-8390-8653BE590246}):41" />
				<v:ud
   v:nameU="visLegendShape"
   v:prompt=""
   v:val="VT0(2):26" />
			</v:userDefs>
			<title
   id="title81">Cloud.32</title>
			<desc
   id="desc83">Reader-Firmware Logic</desc>
			<g
   id="shape33-40"
   v:mID="33"
   v:groupContext="shape"
   transform="translate(0,-29.7611)">
				<title
   id="title85">Sheet.33</title>
				<g
   id="shadow33-41"
   v:groupContext="shadow"
   v:shadowOffsetX="0.345598"
   v:shadowOffsetY="-1.97279"
   v:shadowType="1"
   transform="translate(0.345598,1.97279)"
   class="st1">
					<path
   d="m 120.36,373.81 c -0.75,-6.59 -6.75,-11.74 -14.11,-11.74 -2.09,0 -4.06,0.43 -5.85,1.17 -3.46,-6.47 -10.63,-11.22 -24.08,-10.83 -17.48,0.49 -38.18,8.36 -42.34,22.32 -4.98,0.95 -8.19,3.65 -10.1,7.25 -0.78,-0.08 -1.56,-0.13 -2.37,-0.13 -11.51,0 -20.35,8.4 -20.85,18.74 -0.66,13.39 9.34,18.74 20.85,18.74 1.65,0 3.23,-0.18 4.77,-0.51 2.39,1.56 5.51,2.52 8.93,2.52 3.16,0 6.07,-0.82 8.38,-2.19 4.43,7.54 13.54,12.85 24.04,12.23 11.06,-0.64 17.69,-3 21.61,-6.64 0.24,-0.02 0.47,-0.02 0.72,-0.05 12.36,-1.59 17.79,-4.79 19.54,-10.06 0.33,0.01 0.66,0.01 0.99,0.01 16.03,0 29.01,-4.68 29.01,-21.08 0,-9.11 -8.01,-16.8 -19.14,-19.75 z"
   class="st2"
   id="path87" />
				</g>
				<path
   d="m 120.36,373.81 c -0.75,-6.59 -6.75,-11.74 -14.11,-11.74 -2.09,0 -4.06,0.43 -5.85,1.17 -3.46,-6.47 -10.63,-11.22 -24.08,-10.83 -17.48,0.49 -38.18,8.36 -42.34,22.32 -4.98,0.95 -8.19,3.65 -10.1,7.25 -0.78,-0.08 -1.56,-0.13 -2.37,-0.13 -11.51,0 -20.35,8.4 -20.85,18.74 -0.66,13.39 9.34,18.74 20.85,18.74 1.65,0 3.23,-0.18 4.77,-0.51 2.39,1.56 5.51,2.52 8.93,2.52 3.16,0 6.07,-0.82 8.38,-2.19 4.43,7.54 13.54,12.85 24.04,12.23 11.06,-0.64 17.69,-3 21.61,-6.64 0.24,-0.02 0.47,-0.02 0.72,-0.05 12.36,-1.59 17.79,-4.79 19.54,-10.06 0.33,0.01 0.66,0.01 0.99,0.01 16.03,0 29.01,-4.68 29.01,-21.08 0,-9.11 -8.01,-16.8 -19.14,-19.75 z"
   class="st8"
   id="path90" />
			</g>
			<g
   id="shape32-45"
   v:mID="32"
   v:groupContext="groupContent">
				<v:textBlock
   v:margins="rect(4,4,4,4)" />
				<v:textRect
   cx="69.75"
   cy="367.615"
   width="95.61"
   height="36.8038" />
				<g
   id="shadow32-46"
   v:groupContext="shadow"
   v:shadowOffsetX="0.345598"
   v:shadowOffsetY="-1.97279"
   v:shadowType="1"
   transform="translate(0.345598,1.97279)"
   class="st1" />
				<text
   x="27.309999"
   y="364.01999"
   class="st7"
   v:langID="1033"
   id="text96"><v:paragraph
   v:horizAlign="1" /><v:tabList />Write Firmware<v:newlineChar /><tspan
   x="57.330002"
   dy="1.2em"
   class="st9"
   id="tspan94">Logic</tspan></text>			</g>
		</g><g
   id="shape43-49"
   v:mID="43"
   v:groupContext="shape"
   transform="translate(855.375,-288.075)">
			<title
   id="title100">Triangle</title>
			<desc
   id="desc102">Array</desc>
			<v:userDefs>
				<v:ud
   v:nameU="visVersion"
   v:val="VT0(15):26" />
			</v:userDefs>
			<v:textBlock
   v:margins="rect(4,4,4,4)" />
			<v:textRect
   cx="54"
   cy="400.8"
   width="108"
   height="62.4" />
			<g
   id="shadow43-50"
   v:groupContext="shadow"
   v:shadowOffsetX="0.345598"
   v:shadowOffsetY="-1.97279"
   v:shadowType="1"
   transform="translate(0.345598,1.97279)"
   class="st1">
				<path
   d="M 108,432 54,338.4 0,432 Z"
   class="st12"
   id="path104" />
			</g>
			<path
   d="M 108,432 54,338.4 0,432 Z"
   class="st13"
   id="path107" />
			<text
   x="42.959999"
   y="403.79999"
   class="st14"
   v:langID="1033"
   id="text109"><v:paragraph
   v:horizAlign="1" /><v:tabList />Array</text>		</g><g
   id="shape44-55"
   v:mID="44"
   v:groupContext="shape"
   transform="rotate(180,95.249999,265.68751)">
			<title
   id="title112">Simple Arrow</title>
			<v:userDefs>
				<v:ud
   v:nameU="visVersion"
   v:val="VT0(15):26" />
				<v:ud
   v:nameU="ArrowType"
   v:prompt=""
   v:val="VT0(2):26" />
			</v:userDefs>
			<g
   id="shadow44-56"
   v:groupContext="shadow"
   v:shadowOffsetX="0.345598"
   v:shadowOffsetY="-1.97279"
   v:shadowType="1"
   transform="translate(-0.345598,-1.97279)"
   class="st1">
				<path
   d="m 0,432 27,-36 v 18 h 27 v 18 18 H 27 v 18 z"
   class="st15"
   id="path114" />
			</g>
			<path
   d="m 0,432 27,-36 v 18 h 27 v 18 18 H 27 v 18 z"
   class="st16"
   id="path117" />
		</g><g
   id="shape50-60"
   v:mID="50"
   v:groupContext="shape"
   transform="rotate(180,206.625,265.68751)">
			<title
   id="title120">Simple Arrow.50</title>
			<v:userDefs>
				<v:ud
   v:nameU="visVersion"
   v:val="VT0(15):26" />
				<v:ud
   v:nameU="ArrowType"
   v:prompt=""
   v:val="VT0(2):26" />
			</v:userDefs>
			<g
   id="shadow50-61"
   v:groupContext="shadow"
   v:shadowOffsetX="0.345598"
   v:shadowOffsetY="-1.97279"
   v:shadowType="1"
   transform="translate(-0.345598,-1.97279)"
   class="st1">
				<path
   d="m 0,432 27,-36 v 18 h 27 v 18 18 H 27 v 18 z"
   class="st15"
   id="path122" />
			</g>
			<path
   d="m 0,432 27,-36 v 18 h 27 v 18 18 H 27 v 18 z"
   class="st16"
   id="path125" />
		</g><g
   id="shape53-65"
   v:mID="53"
   v:groupContext="shape"
   transform="rotate(180,310.125,265.68751)">
			<title
   id="title128">Simple Arrow.53</title>
			<v:userDefs>
				<v:ud
   v:nameU="visVersion"
   v:val="VT0(15):26" />
				<v:ud
   v:nameU="ArrowType"
   v:prompt=""
   v:val="VT0(2):26" />
			</v:userDefs>
			<g
   id="shadow53-66"
   v:groupContext="shadow"
   v:shadowOffsetX="0.345598"
   v:shadowOffsetY="-1.97279"
   v:shadowType="1"
   transform="translate(-0.345598,-1.97279)"
   class="st1">
				<path
   d="m 0,432 27,-36 v 18 h 27 v 18 18 H 27 v 18 z"
   class="st15"
   id="path130" />
			</g>
			<path
   d="m 0,432 27,-36 v 18 h 27 v 18 18 H 27 v 18 z"
   class="st16"
   id="path133" />
		</g><g
   id="shape56-70"
   v:mID="56"
   v:groupContext="shape"
   transform="rotate(180,424.875,265.68751)">
			<title
   id="title136">Simple Arrow.56</title>
			<v:userDefs>
				<v:ud
   v:nameU="visVersion"
   v:val="VT0(15):26" />
				<v:ud
   v:nameU="ArrowType"
   v:prompt=""
   v:val="VT0(2):26" />
			</v:userDefs>
			<g
   id="shadow56-71"
   v:groupContext="shadow"
   v:shadowOffsetX="0.345598"
   v:shadowOffsetY="-1.97279"
   v:shadowType="1"
   transform="translate(-0.345598,-1.97279)"
   class="st1">
				<path
   d="m 0,432 27,-36 v 18 h 27 v 18 18 H 27 v 18 z"
   class="st15"
   id="path138" />
			</g>
			<path
   d="m 0,432 27,-36 v 18 h 27 v 18 18 H 27 v 18 z"
   class="st16"
   id="path141" />
		</g><g
   id="shape83-75"
   v:mID="83"
   v:groupContext="shape"
   transform="translate(0.37500284,-404.625)">
			<title
   id="title144">Sheet.83</title>
			<desc
   id="desc146">Write Clock Domain</desc>
			<v:textBlock
   v:margins="rect(4,4,4,4)" />
			<v:textRect
   cx="69.75"
   cy="418.5"
   width="139.5"
   height="27" />
			<rect
   x="0"
   y="405"
   width="139.5"
   height="27"
   class="st17"
   id="rect148" />
			<text
   x="13.08"
   y="422.70001"
   class="st18"
   v:langID="1033"
   id="text150"><v:paragraph
   v:horizAlign="1" /><v:tabList />Write Clock Domain</text>		</g><g
   id="shape86-78"
   v:mID="86"
   v:groupContext="shape"
   transform="translate(486.375,-404.625)">
			<title
   id="title153">Sheet.86</title>
			<desc
   id="desc155">Read Clock Domain</desc>
			<v:textBlock
   v:margins="rect(4,4,4,4)" />
			<v:textRect
   cx="69.75"
   cy="418.5"
   width="139.5"
   height="27" />
			<rect
   x="0"
   y="405"
   width="139.5"
   height="27"
   class="st17"
   id="rect157" />
			<text
   x="14.87"
   y="422.70001"
   class="st18"
   v:langID="1033"
   id="text159"><v:paragraph
   v:horizAlign="1" /><v:tabList />Read Clock Domain</text>		</g>
</svg>
